# https://github.com/mikedh/trimesh
v 0.06519866 0.02141543 0.01714994
v 0.07274961 -0.00734628 0.01162284
v 0.07172014 0.02114829 -0.00741718
v 0.06128203 0.01611072 -0.01577658
v 0.05313613 -0.01479354 0.01276985
v 0.06910122 -0.01397309 -0.01450029
v 0.05475922 0.02157423 0.01076651
v 0.07175731 0.01900272 0.01342541
v 0.06586316 -0.01384402 0.01697034
v 0.07406599 -0.00320264 -0.00757992
v 0.06938140 -0.00323612 -0.01553922
v 0.05306509 -0.01477510 -0.01150585
v 0.05547499 0.02207334 0.01461318
v 0.06543886 0.02150060 -0.00758191
v 0.07160662 0.02111678 0.01156906
v 0.07174875 0.00209975 0.01629878
v 0.07068870 -0.01372951 0.01255670
v 0.07393898 0.00941963 0.01064069
v 0.06481122 0.00515537 -0.01640418
v 0.06932339 -0.00959835 -0.01499343
v 0.07388845 0.01258756 -0.00738789
v 0.05512646 0.01675363 -0.00898146
v 0.05180865 -0.01470985 -0.00006813
v 0.05925437 -0.01446938 0.01740083
v 0.06884903 0.02109069 0.01592420
v 0.07023885 -0.00513966 0.01702776
v 0.07196230 -0.01384041 -0.00758209
v 0.07402152 -0.00214073 0.00848970
v 0.07282597 -0.00332095 0.01464406
v 0.07275805 0.01056275 0.01465904
v 0.07269802 0.01693826 0.01059463
v 0.05934093 -0.01444015 -0.01635044
v 0.07396351 0.01273832 0.00430948
v 0.05889974 0.01653078 -0.01456530
v 0.05183209 -0.01461544 -0.00944174
v 0.05735817 0.02186266 0.01629871
v 0.06802781 -0.01384247 0.01592390
v 0.07054385 0.02103128 0.01439799
v 0.06813600 0.01800577 0.01713327
v 0.07173503 -0.01280988 0.00848986
v 0.07279629 -0.01056807 -0.00747383
v 0.07388782 0.00428740 0.01162990
v 0.07164522 -0.00778705 0.01511473
v 0.07270535 0.01480824 0.01261721
v 0.07196899 0.00493236 0.01607566
v 0.06505701 -0.01411943 -0.01618707
v 0.07281297 0.01905305 0.00641215
v 0.05707044 -0.01439157 -0.01546418
v 0.05971172 0.01647743 -0.01508571
v 0.06126090 0.02162319 0.01724260
v 0.05408845 -0.01457373 0.01461682
v 0.07171309 0.01702678 0.01450573
v 0.07022066 0.00625902 0.01697505
v 0.07162112 -0.01157474 0.01149340
v 0.07168993 -0.01375950 0.00209073
v 0.07281261 -0.00835625 0.00973872
v 0.07281933 -0.01065109 -0.00331026
v 0.07395278 0.00104269 0.01064494
v 0.07389382 0.00843565 0.01165083
v 0.07270155 -0.00527522 0.01372881
v 0.06956554 -0.01258597 0.01538250
v 0.07093295 -0.00738439 0.01600034
v 0.07093729 0.01265149 0.01607118
v 0.06797937 -0.01392691 -0.01518426
vn 0.11695968 0.69546876 0.70897365
vn 0.95881934 -0.20954529 0.19171916
vn 0.59754568 0.70503999 -0.38191330
vn 0.03718511 0.42767918 -0.90316543
vn -0.70599122 -0.67203365 0.22348864
vn 0.55468441 -0.68017280 -0.47926002
vn -0.75969591 0.65010028 -0.01522335
vn 0.90892791 0.24811587 0.33509488
vn 0.19018416 -0.61531605 0.76499421
vn 0.96679320 -0.06384799 -0.24745573
vn 0.57647001 0.01429083 -0.81699333
vn -0.58469394 -0.66646121 -0.46256074
vn -0.63470539 0.68166081 0.36398847
vn -0.08682475 0.95195924 -0.29365807
vn 0.64294440 0.75480187 0.12998707
vn 0.63476156 -0.00987629 0.77264496
vn 0.61157300 -0.76048960 0.21825224
vn 0.99169442 0.08651209 0.09517266
vn 0.24316202 0.11712185 -0.96288873
vn 0.67324847 -0.08895800 -0.73404562
vn 0.92114919 0.14070696 -0.36288528
vn -0.79884175 0.51229105 -0.31529311
vn -0.76034791 -0.64886587 0.02905422
vn -0.13758075 -0.65687062 0.74134508
vn 0.40551398 0.69561462 0.59302505
vn 0.40147036 -0.07408010 0.91287112
vn 0.66567024 -0.73482965 -0.13003277
vn 0.99327303 -0.09184323 0.07052312
vn 0.88618116 -0.10128743 0.45213251
vn 0.85190507 0.09868098 0.51431491
vn 0.97175169 0.18489714 0.14666871
vn -0.11613439 -0.65941025 -0.74275900
vn 0.99473237 0.10038779 0.02073150
vn -0.57214895 0.52691630 -0.62849406
vn -0.80371889 -0.55557036 -0.21302000
vn -0.31893759 0.64393285 0.69543461
vn 0.37308349 -0.75175050 0.54376456
vn 0.56233224 0.71148504 0.42139233
vn 0.32476979 0.11521381 0.93874936
vn 0.90883458 -0.40769478 0.08834409
vn 0.95973650 -0.19840555 -0.19884941
vn 0.97967464 -0.00743069 0.20045544
vn 0.83615512 -0.23559539 0.49531751
vn 0.95931849 0.15992693 0.23266158
vn 0.69724222 0.02668999 0.71633856
vn 0.14899926 -0.66417381 -0.73257926
vn 0.94701243 0.31881364 0.03905525
vn -0.44651292 -0.55755657 -0.69982633
vn -0.34104427 0.53129856 -0.77550670
vn -0.04238508 0.66522941 0.74543500
vn -0.56704692 -0.57825572 0.58658171
vn 0.80278770 0.17696901 0.56939782
vn 0.30798546 0.03126921 0.95087706
vn 0.93737334 -0.28042443 0.20662371
vn 0.62921146 -0.77669407 0.02897010
vn 0.96994274 -0.22129445 0.10119213
vn 0.97383971 -0.22663541 0.01651072
vn 0.99135580 -0.03589682 0.12619470
vn 0.97827784 0.04309952 0.20276807
vn 0.95242839 -0.18742133 0.24031940
vn 0.65892176 -0.37747413 0.65064229
vn 0.63438170 -0.19459194 0.74812689
vn 0.58973336 0.10486127 0.80076131
vn 0.35110351 -0.55582204 -0.75351721
f 13//13 7//7 5//5
f 14//14 3//3 4//4
f 14//14 13//13 3//3
f 14//14 7//7 13//13
f 15//15 13//13 1//1
f 15//15 3//3 13//13
f 19//19 4//4 3//3
f 19//19 3//3 11//11
f 20//20 11//11 10//10
f 20//20 10//10 6//6
f 21//21 11//11 3//3
f 21//21 10//10 11//11
f 22//22 7//7 14//14
f 23//23 12//12 5//5
f 23//23 5//5 7//7
f 26//26 24//24 9//9
f 27//27 17//17 24//24
f 27//27 24//24 5//5
f 27//27 12//12 6//6
f 27//27 5//5 12//12
f 29//29 16//16 26//26
f 31//31 15//15 8//8
f 32//32 4//4 19//19
f 32//32 6//6 12//12
f 33//33 10//10 21//21
f 33//33 28//28 10//10
f 33//33 18//18 28//28
f 34//34 12//12 22//22
f 34//34 22//22 14//14
f 35//35 22//22 12//12
f 35//35 12//12 23//23
f 35//35 23//23 7//7
f 35//35 7//7 22//22
f 37//37 24//24 17//17
f 37//37 9//9 24//24
f 37//37 26//26 9//9
f 38//38 15//15 1//1
f 38//38 1//1 25//25
f 38//38 8//8 15//15
f 39//39 25//25 1//1
f 39//39 24//24 26//26
f 41//41 27//27 6//6
f 41//41 6//6 10//10
f 44//44 8//8 30//30
f 44//44 31//31 8//8
f 44//44 18//18 31//31
f 45//45 16//16 29//29
f 45//45 29//29 30//30
f 46//46 6//6 32//32
f 46//46 32//32 19//19
f 46//46 19//19 11//11
f 47//47 31//31 18//18
f 47//47 18//18 33//33
f 47//47 15//15 31//31
f 47//47 3//3 15//15
f 47//47 33//33 21//21
f 47//47 21//21 3//3
f 48//48 32//32 12//12
f 48//48 12//12 34//34
f 48//48 4//4 32//32
f 49//49 34//34 14//14
f 49//49 14//14 4//4
f 49//49 48//48 34//34
f 49//49 4//4 48//48
f 50//50 36//36 24//24
f 50//50 1//1 13//13
f 50//50 13//13 36//36
f 50//50 39//39 1//1
f 50//50 24//24 39//39
f 51//51 36//36 13//13
f 51//51 13//13 5//5
f 51//51 5//5 24//24
f 51//51 24//24 36//36
f 52//52 30//30 8//8
f 52//52 8//8 38//38
f 52//52 38//38 25//25
f 53//53 39//39 26//26
f 53//53 26//26 16//16
f 53//53 16//16 45//45
f 54//54 17//17 40//40
f 54//54 43//43 17//17
f 54//54 2//2 43//43
f 55//55 40//40 17//17
f 55//55 17//17 27//27
f 56//56 28//28 2//2
f 56//56 54//54 40//40
f 56//56 2//2 54//54
f 57//57 41//41 10//10
f 57//57 10//10 28//28
f 57//57 28//28 56//56
f 57//57 56//56 40//40
f 57//57 40//40 55//55
f 57//57 55//55 27//27
f 57//57 27//27 41//41
f 58//58 42//42 29//29
f 58//58 29//29 28//28
f 58//58 28//28 18//18
f 59//59 30//30 29//29
f 59//59 29//29 42//42
f 59//59 44//44 30//30
f 59//59 18//18 44//44
f 59//59 58//58 18//18
f 59//59 42//42 58//58
f 60//60 43//43 2//2
f 60//60 29//29 43//43
f 60//60 2//2 28//28
f 60//60 28//28 29//29
f 61//61 37//37 17//17
f 61//61 17//17 43//43
f 61//61 26//26 37//37
f 62//62 43//43 29//29
f 62//62 29//29 26//26
f 62//62 61//61 43//43
f 62//62 26//26 61//61
f 63//63 45//45 30//30
f 63//63 53//53 45//45
f 63//63 39//39 53//53
f 63//63 30//30 52//52
f 63//63 52//52 25//25
f 63//63 25//25 39//39
f 64//64 20//20 6//6
f 64//64 6//6 46//46
f 64//64 46//46 11//11
f 64//64 11//11 20//20

